HIERARCHY
ROOT Hips
{
	OFFSET 0.000000 0.000000 0.000000 
	CHANNELS 6 Xposition Yposition Zposition Zrotation Yrotation Xrotation
	JOINT LeftUpLeg
	{
		OFFSET 1.363060 -1.794630 0.839290 
		CHANNELS 3 Zrotation Yrotation Xrotation
		JOINT LeftLeg
		{
			OFFSET 2.448110 -6.726130 0.000000 
			CHANNELS 3 Zrotation Yrotation Xrotation
			JOINT LeftFoot
			{
				OFFSET 2.562200 -7.039590 0.000000 
				CHANNELS 3 Zrotation Yrotation Xrotation
				JOINT LeftToeBase
				{
					OFFSET 0.157640 -0.433110 2.322550 
					CHANNELS 3 Zrotation Yrotation Xrotation
					End Site
					{
						OFFSET 0.000000 0.000000 0.000000 
					}
				}
			}
		}
	}
	JOINT RightUpLeg
	{
		OFFSET -1.305520 -1.794630 0.839290 
		CHANNELS 3 Zrotation Yrotation Xrotation
		JOINT RightLeg
		{
			OFFSET -2.542530 -6.985550 0.000000 
			CHANNELS 3 Zrotation Yrotation Xrotation
			JOINT RightFoot
			{
				OFFSET -2.568260 -7.056230 0.000000 
				CHANNELS 3 Zrotation Yrotation Xrotation
				JOINT RightToeBase
				{
					OFFSET -0.164730 -0.452590 2.363150 
					CHANNELS 3 Zrotation Yrotation Xrotation
					End Site
					{
						OFFSET 0.000000 0.000000 0.000000 
					}
				}
			}
		}
	}
	JOINT Spine
	{
		OFFSET 0.028270 2.035590 -0.193380 
		CHANNELS 3 Zrotation Yrotation Xrotation
		JOINT Spine1
		{
			OFFSET 0.056720 2.048850 -0.042750 
			CHANNELS 3 Zrotation Yrotation Xrotation
			JOINT Neck1
			{
				OFFSET -0.054170 1.746240 0.172020 
				CHANNELS 3 Zrotation Yrotation Xrotation
				JOINT Head
				{
					OFFSET 0.104070 1.761360 -0.123970 
					CHANNELS 3 Zrotation Yrotation Xrotation
					End Site
					{
						OFFSET 0.000000 0.000000 0.000000 
					}
				}
			}
			JOINT LeftArm
			{
				OFFSET 3.362410 1.200890 -0.311210 
				CHANNELS 3 Zrotation Yrotation Xrotation
				JOINT LeftForeArm
				{
					OFFSET 4.983000 -0.000000 -0.000000 
					CHANNELS 3 Zrotation Yrotation Xrotation
					JOINT LeftHand
					{
						OFFSET 3.483560 -0.000000 -0.000000 
						CHANNELS 3 Zrotation Yrotation Xrotation
						JOINT LeftHandIndex1
						{
							OFFSET 0.715260 -0.000000 -0.000000 
							CHANNELS 3 Zrotation Yrotation Xrotation
							End Site
							{
								OFFSET 0.000000 0.000000 0.000000 
							}
						}
					}
				}
			}
			JOINT RightArm
			{
				OFFSET -3.136600 1.374050 -0.404650 
				CHANNELS 3 Zrotation Yrotation Xrotation
				JOINT RightForeArm
				{
					OFFSET -5.241900 -0.000000 -0.000000 
					CHANNELS 3 Zrotation Yrotation Xrotation
					JOINT RightHand
					{
						OFFSET -3.444170 -0.000000 -0.000000 
						CHANNELS 3 Zrotation Yrotation Xrotation
						JOINT RightHandIndex1
						{
							OFFSET -0.622530 -0.000000 -0.000000 
							CHANNELS 3 Zrotation Yrotation Xrotation
							End Site
							{
								OFFSET 0.000000 0.000000 0.000000 
							}
						}
					}
				}
			}
		}
	}
}
MOTION
Frames: 9
Frame Time: 0.041667
-0.232978 17.021571 7.660913 0.919499 -5.648250 7.390179 -27.763758 -14.896254 1.850086 -1.477625 4.893887 14.083014 -1.671054 18.547706 -18.533984 0.000000 0.005600 0.015300 25.691369 15.495858 -7.300370 -0.033189 -9.457546 26.705379 1.305934 -16.001797 -19.448943 -0.007600 0.563300 -1.547900 1.121561 -1.263906 -5.324435 -3.569639 -0.699677 -3.820959 4.692203 5.867133 13.926697 -3.697500 4.106900 11.922600 -103.627421 11.523871 -5.777733 21.146025 -30.520455 -4.208528 0.100607 4.910045 21.168511 -7.125000 0.000000 0.000000 98.508207 -8.738359 -4.595382 -18.197803 27.685508 -3.123001 -1.341216 -2.942898 18.547410 7.125000 0.000000 0.000000 
-0.232762 17.021571 7.659074 0.930585 -5.717488 7.366912 -27.795934 -14.890585 1.922064 -1.483118 4.866683 14.020760 -1.683621 18.621943 -18.555526 0.000000 0.032800 0.090000 25.673486 15.505117 -7.306230 -0.038319 -9.467297 26.735422 1.292500 -15.931301 -19.443184 -0.007700 0.565500 -1.554000 1.114909 -1.241233 -5.319564 -3.565801 -0.694954 -3.770703 4.743679 5.840878 14.004030 -3.655000 4.106400 11.986000 -103.596899 11.499011 -5.574254 21.260585 -30.634749 -4.239254 0.071378 4.915993 21.031467 -7.125000 0.000000 0.000000 98.279284 -8.445967 -3.901451 -18.676017 28.130758 -3.210367 -1.298612 -2.850629 17.573709 7.125000 0.000000 0.000000 
-0.233086 17.022761 7.656911 0.923056 -5.824852 7.359246 -27.829229 -15.003813 2.012044 -1.484859 4.854421 13.997661 -1.706775 18.797056 -18.693490 0.000100 0.078700 0.216300 25.673725 15.545380 -7.346759 -0.036800 -9.477476 26.743490 1.296784 -15.911647 -19.357734 -0.008800 0.605600 -1.664200 1.112463 -1.220873 -5.318004 -3.548484 -0.690932 -3.736748 4.789479 5.829085 14.071852 -3.625300 4.115300 12.042100 -103.573469 11.495004 -5.349666 21.398585 -30.770376 -4.272449 0.051960 4.904602 20.865681 -7.125000 0.000000 0.000000 98.035890 -8.129709 -3.083098 -19.204208 28.652792 -3.334713 -1.246916 -2.863106 16.478204 7.125000 0.000000 0.000000 
-0.233735 17.021571 7.654315 0.924036 -5.889845 7.354214 -27.833830 -14.967525 2.020670 -1.486334 4.845886 13.977239 -1.714649 18.836538 -18.693944 0.000100 0.072600 0.199500 25.658469 15.546613 -7.367800 -0.037649 -9.482278 26.752443 1.281132 -15.824667 -19.339963 -0.008100 0.581200 -1.597000 1.104807 -1.202189 -5.319452 -3.576238 -0.690191 -3.698571 4.832398 5.783853 14.160419 -3.596200 4.110800 12.125300 -103.521946 11.517266 -5.051641 21.635375 -30.990828 -4.331774 0.032441 4.884015 20.600757 -7.125000 0.000000 0.000000 97.835315 -7.844946 -2.021347 -19.632264 29.126960 -3.478366 -1.390790 -2.799581 14.492694 7.125000 0.000000 0.000000 
-0.234384 17.021355 7.651827 0.920670 -5.958279 7.345130 -27.843631 -14.975658 2.050207 -1.487096 4.839442 13.964663 -1.724295 18.902469 -18.737063 0.000200 0.085200 0.234200 25.654268 15.565936 -7.383838 -0.037116 -9.486495 26.756758 1.273029 -15.771253 -19.312208 -0.007800 0.569700 -1.565500 1.099240 -1.186199 -5.319496 -3.585480 -0.689691 -3.666070 4.876677 5.752128 14.233562 -3.565400 4.110600 12.186600 -103.479341 11.521603 -4.786403 21.832584 -31.177511 -4.383008 0.013318 4.870578 20.363311 -7.125000 0.000000 0.000000 97.619049 -7.551136 -1.129650 -20.130491 29.636544 -3.620443 -1.425981 -2.772693 12.972563 7.125000 0.000000 0.000000 
-0.235141 17.021247 7.649340 0.912968 -6.018493 7.336614 -27.843991 -14.978067 2.059327 -1.485412 4.843216 13.977048 -1.729678 18.946962 -18.780184 0.000200 0.093300 0.256400 25.656874 15.582651 -7.393354 -0.034756 -9.486752 26.750637 1.266890 -15.726713 -19.281821 -0.007400 0.556900 -1.530200 1.094022 -1.174383 -5.320277 -3.595023 -0.691425 -3.637104 4.920393 5.719065 14.302717 -3.534300 4.109200 12.242300 -103.435465 11.525197 -4.515512 22.050389 -31.382676 -4.440846 -0.004266 4.855411 20.095180 -7.125000 0.000000 0.000000 97.405980 -7.256043 -0.251351 -20.684426 30.203406 -3.782793 -1.423974 -2.796798 11.543771 7.125000 0.000000 0.000000 
-0.236115 17.021030 7.646744 0.901649 -6.066139 7.327924 -27.834849 -14.967874 2.064511 -1.484238 4.844149 13.982603 -1.733483 18.973817 -18.802858 0.000200 0.097800 0.268700 25.665329 15.595256 -7.400616 -0.032846 -9.487419 26.746686 1.261614 -15.689504 -19.257727 -0.007100 0.544200 -1.495400 1.088969 -1.167025 -5.321515 -3.604419 -0.695644 -3.610929 4.963906 5.683938 14.366727 -3.501800 4.105800 12.290600 -103.388957 11.522527 -4.240945 22.279969 -31.598241 -4.503403 -0.020090 4.840399 19.799750 -7.125000 0.000000 0.000000 97.196841 -6.959710 0.581948 -21.310435 30.839585 -3.968130 -1.366579 -2.879283 10.310320 7.125000 0.000000 0.000000 
-0.237088 17.020922 7.644256 0.888052 -6.102561 7.316958 -27.820449 -14.954359 2.066197 -1.482559 4.846657 13.992433 -1.734939 18.986126 -18.818359 0.000200 0.101900 0.279800 25.678957 15.599295 -7.403345 -0.030863 -9.486756 26.741043 1.258800 -15.662869 -19.229476 -0.007000 0.540300 -1.484700 1.084315 -1.164030 -5.322505 -3.611642 -0.701941 -3.585858 5.006397 5.649049 14.424200 -3.469000 4.101200 12.330700 -103.341300 11.509460 -3.967586 22.513147 -31.817692 -4.569258 -0.033116 4.826689 19.490940 -7.125000 0.000000 0.000000 96.990481 -6.660028 1.347497 -21.987235 31.517177 -4.169246 -1.261203 -2.994331 9.281581 7.125000 0.000000 0.000000 
-0.238278 17.020922 7.641769 0.874916 -6.130764 7.305160 -27.804917 -14.940286 2.066175 -1.480923 4.849694 14.003528 -1.735616 18.990982 -18.826301 0.000300 0.102300 0.281000 25.692844 15.593217 -7.405002 -0.029066 -9.485537 26.735226 1.257441 -15.641073 -19.196218 -0.007100 0.544300 -1.495600 1.079814 -1.164257 -5.323224 -3.616339 -0.709532 -3.560773 5.049190 5.615630 14.476622 -3.434100 4.095900 12.364300 -103.292271 11.485736 -3.695755 22.749058 -32.039917 -4.637424 -0.043453 4.812740 19.175723 -7.125000 0.000000 0.000000 96.788560 -6.355655 2.051384 -22.708644 32.235646 -4.391239 -1.112397 -3.148105 8.472121 7.125000 0.000000 0.000000 
